<?xml version="1.0" encoding="utf-8"?>
<svg id="master-artboard" viewBox="0 0 1400 980" version="1.1" xmlns="http://www.w3.org/2000/svg" x="0px" y="0px" style="enable-background:new 0 0 1400 980;" width="1400px" height="1400px"><rect id="ee-background" x="0" y="0" width="1400" height="1400" style="fill: rgb(255, 255, 255); fill-opacity: 0; pointer-events: none;"/><defs><style id="ee-google-fonts">@import url(https://fonts.googleapis.com/css?family=Roboto:100,100italic,300,300italic,400,400italic,500,500italic,700,700italic,900,900italic);</style><linearGradient id="gradient-0" gradientUnits="objectBoundingBox" x1="0.5" y1="0" x2="0.5" y2="1">
                <stop offset="0" style="stop-color: #3279fc"/>
                <stop offset="1" style="stop-color: #0347c5"/>
              </linearGradient><linearGradient id="gradient-1" gradientUnits="userSpaceOnUse" x1="700" y1="0" x2="700" y2="700">
                <stop offset="0" style="stop-color: #ffffff"/>
                <stop offset="1" style="stop-color: #cccccc"/>
              </linearGradient></defs>























































































































<path d="M 260.79998779296875 86.19999694824219" style="fill: rgb(23, 168, 247); fill-opacity: 1; stroke: rgb(0, 0, 0); stroke-opacity: 1; stroke-width: 0; paint-order: fill;"/><g transform="matrix(32.77177047729492, 0, 0, 32.77177047729492, 268.3277757456492, 60.31946645688089)"><path d="M12 4.942c1.827 1.105 3.474 1.6 5 1.833v7.76c0 1.606-.415 1.935-5 4.76v-14.353zm9-1.942v11.535c0 4.603-3.203 5.804-9 9.465-5.797-3.661-9-4.862-9-9.465v-11.535c3.516 0 5.629-.134 9-3 3.371 2.866 5.484 3 9 3zm-2 1.96c-2.446-.124-4.5-.611-7-2.416-2.5 1.805-4.554 2.292-7 2.416v9.575c0 3.042 1.69 3.83 7 7.107 5.313-3.281 7-4.065 7-7.107v-9.575z" style="fill: url('#gradient-0'); fill-opacity: 0.82;"/></g></svg>